<?xml version="1.0" encoding="UTF-8"?>
<svg version="1.1" xmlns="http://www.w3.org/2000/svg" width="565" height="565">
<path d="M0 0 C186.45 0 372.9 0 565 0 C565 186.45 565 372.9 565 565 C378.55 565 192.1 565 0 565 C0 378.55 0 192.1 0 0 Z " fill="#1E1E1E" transform="translate(0,0)"/>
<path d="M0 0 C0.67196716 -0.00453111 1.34393432 -0.00906223 2.03626412 -0.01373065 C4.29867437 -0.02643911 6.56084587 -0.02475016 8.82328796 -0.02310181 C10.44106864 -0.02908314 12.05884646 -0.03588776 13.67662048 -0.04345703 C18.07960509 -0.06116667 22.48251203 -0.06581455 26.8855288 -0.0670886 C30.55848141 -0.06898495 34.23141581 -0.0763396 37.90436143 -0.08343279 C46.56989185 -0.09973396 55.23538069 -0.10460025 63.90092468 -0.10317993 C72.84414594 -0.1019787 81.78712578 -0.12307276 90.73028594 -0.15466726 C98.40338857 -0.18081037 106.07641227 -0.19154802 113.7495591 -0.19026911 C118.33454277 -0.18975881 122.9193121 -0.19547935 127.50425148 -0.21662521 C131.81760547 -0.23597408 136.13054 -0.23615522 140.44390869 -0.22159195 C142.02696024 -0.21949842 143.61003779 -0.22423713 145.19304466 -0.23631287 C147.35493951 -0.25173597 149.51538281 -0.24247872 151.67724609 -0.22705078 C153.4915863 -0.22868508 153.4915863 -0.22868508 155.34257984 -0.2303524 C159.18142992 0.36932865 160.86767351 1.46780583 163.52909851 4.26742554 C163.97623785 11.73871747 160.13056847 16.81549778 156.09159851 22.82992554 C155.13326111 24.29498535 155.13326111 24.29498535 154.15556335 25.78964233 C152.29522132 28.62597431 150.41605981 31.4487542 148.52909851 34.26742554 C147.66568995 35.56421578 146.80239031 36.86107856 145.93925476 38.15805054 C144.79818226 39.8689371 143.65514757 41.57836735 142.50663757 43.28427124 C133.23722481 57.09284874 124.45444269 71.23519606 115.52909851 85.26742554 C113.54909851 84.77242554 113.54909851 84.77242554 111.52909851 84.26742554 C113.01069645 79.26118407 115.1671038 74.94649183 117.65409851 70.39242554 C120.9989936 64.17567798 124.2387615 57.92393933 127.35209656 51.58822632 C129.30480609 47.64024137 131.33705267 43.74752184 133.43925476 39.87680054 C133.94021667 38.94706421 134.44117859 38.01732788 134.95732117 37.05941772 C135.93987975 35.24179561 136.93255808 33.42959587 137.93681335 31.62387085 C140.75130509 26.39624093 142.31894009 22.23321286 142.52909851 16.26742554 C140.8658703 14.60419732 138.87527811 15.1249854 136.58743286 15.10920715 C135.51746063 15.09941833 134.4474884 15.08962952 133.34509277 15.07954407 C132.16114426 15.0737886 130.97719574 15.06803314 129.75737 15.06210327 C127.89909576 15.04725388 127.89909576 15.04725388 126.00328064 15.03210449 C122.59642877 15.0058533 119.18960114 14.98401757 115.78270984 14.96410251 C112.22590242 14.94228112 108.66913827 14.91487367 105.11236572 14.88804626 C98.37276409 14.83806719 91.6331385 14.79314778 84.8934899 14.7500239 C77.22248379 14.700696 69.5515211 14.64576143 61.88055694 14.59034431 C46.09677754 14.47644424 30.31295828 14.36962277 14.52909851 14.26742554 C15.09569418 18.63279485 15.55327821 21.97598651 17.87284851 25.74398804 C18.36857361 26.56463745 18.86429871 27.38528687 19.37504578 28.23080444 C20.19380188 29.54830688 20.19380188 29.54830688 21.02909851 30.89242554 C22.21634762 32.85012176 23.40248771 34.80849085 24.58769226 36.76742554 C25.224328 37.81285522 25.86096375 38.85828491 26.51689148 39.93539429 C29.73467903 45.26375688 32.8638709 50.64333794 35.99937439 56.02038574 C41.16052596 64.86644668 46.35828509 73.6886295 51.65409851 82.45492554 C56.88139339 91.10979249 61.92776744 99.86429776 66.96098328 108.63314819 C70.76359608 115.24575318 74.63423368 121.80894297 78.59159851 128.32992554 C82.97074083 135.55210575 87.12701426 142.87781882 91.21659851 150.26742554 C96.31038838 159.45758999 101.61276899 168.49147471 107.09159851 177.45492554 C107.45187134 178.04435944 107.81214417 178.63379333 108.18333435 179.24108887 C109.61532725 181.5830969 111.04760131 183.92493261 112.48042297 186.26643372 C120.46227462 199.3249168 128.14835938 212.55452927 135.71635437 225.85604858 C139.85924022 233.12456662 144.053657 240.36228483 148.27531433 247.58526611 C149.01709289 248.85498131 149.75792602 250.12524939 150.49772644 251.39611816 C154.26886101 257.87163531 158.05523742 264.27372291 162.4473114 270.35482788 C164.40223213 273.8111242 164.13061705 276.39097271 163.52909851 280.26742554 C162.12806382 282.43902931 161.24900799 283.0320356 158.82495022 283.8246336 C155.8668255 284.39515554 153.05935278 284.40351566 150.04547119 284.41459656 C149.3962965 284.41827325 148.7471218 284.42194993 148.07827514 284.42573804 C145.9050552 284.43674293 143.73188312 284.44061319 141.55863953 284.44442749 C139.99967803 284.45069434 138.44071802 284.45734134 136.88175964 284.46434021 C131.76551854 284.48534909 126.64927723 284.49573668 121.53300476 284.50570679 C119.77111737 284.50975493 118.00923013 284.51387187 116.24734306 284.51805687 C107.97294356 284.53709818 99.69855294 284.55133385 91.42413574 284.55966884 C81.87140589 284.56945065 72.31890716 284.59579913 62.76625878 284.63616973 C55.38187034 284.66630731 47.99754827 284.6811353 40.61309952 284.68444985 C36.20250845 284.6868022 31.79216461 284.69578709 27.38163948 284.72091103 C23.2340698 284.74415694 19.0869108 284.74843921 14.93929291 284.73814964 C13.41750919 284.73765339 11.89570547 284.74400025 10.37398338 284.75770569 C8.29539849 284.77537892 6.21829503 284.76834332 4.13970947 284.75517273 C2.97699304 284.75756108 1.8142766 284.75994944 0.61632633 284.76241016 C-3.14219219 284.15979546 -4.81340672 282.95040983 -7.47090149 280.26742554 C-8.34594331 276.16673936 -7.57604869 274.45592886 -5.52949524 270.78695679 C-4.66972697 269.54154745 -3.79553481 268.30599257 -2.90840149 267.07992554 C-2.05134161 265.85838411 -1.19591544 264.63569506 -0.34199524 263.41195679 C0.11546082 262.76098022 0.57291687 262.11000366 1.04423523 261.43930054 C3.34630955 258.07210995 5.50054607 254.61342254 7.679245 251.1656189 C10.80200536 246.27314322 14.04597133 241.46236601 17.27909851 236.64242554 C22.13606748 229.37920529 26.97353722 222.10565232 31.71659851 214.76742554 C32.13715515 214.11693237 32.55771179 213.46643921 32.99101257 212.79623413 C35.87879346 208.31257434 38.71219378 203.79589557 41.52909851 199.26742554 C42.51909851 199.59742554 43.50909851 199.92742554 44.52909851 200.26742554 C43.19022394 204.60780018 41.50370581 208.50418489 39.40409851 212.52914429 C39.10083145 213.11329605 38.79756439 213.69744781 38.48510742 214.29930115 C37.50390579 216.18669588 36.516545 218.07079172 35.52909851 219.95492554 C34.84927531 221.26039187 34.16983447 222.56605738 33.49076843 223.87191772 C30.49852249 229.61965459 27.48668772 235.3568574 24.45487976 241.08383179 C23.78295593 242.35384033 23.78295593 242.35384033 23.09745789 243.64950562 C22.29347012 245.16542266 21.48645917 246.67974256 20.67558289 248.19198608 C19.60398978 250.20647606 18.55850125 252.23107265 17.52909851 254.26742554 C17.13641785 255.03764038 16.74373718 255.80785522 16.3391571 256.60140991 C15.96226746 257.38322632 15.58537781 258.16504272 15.19706726 258.97055054 C14.85312927 259.67341187 14.50919128 260.37627319 14.15483093 261.10043335 C13.21961099 263.71528366 13.21961099 263.71528366 14.52909851 268.26742554 C56.43909851 268.26742554 98.34909851 268.26742554 141.52909851 268.26742554 C139.05564568 260.63457342 139.05564568 260.63457342 135.59550476 253.84164429 C135.03524597 252.89071899 134.47498718 251.9397937 133.89775085 250.96005249 C133.30172058 249.9683606 132.70569031 248.9766687 132.09159851 247.95492554 C131.46978699 246.9045813 130.84797546 245.85423706 130.20732117 244.77206421 C128.32456493 241.59776117 126.42948112 238.43120227 124.52909851 235.26742554 C123.98978699 234.36927124 123.45047546 233.47111694 122.89482117 232.54574585 C120.90632782 229.23728795 118.91651069 225.92963772 116.92314148 222.62411499 C111.86010317 214.20553674 107.01333037 205.66718749 102.15800476 197.1277771 C93.74463328 182.35393713 85.22051476 167.65277026 76.44047546 153.09359741 C72.87645575 147.18321479 69.33269345 141.26203045 65.81816101 135.32211304 C65.41560089 134.64182541 65.01304077 133.96153778 64.59828186 133.26063538 C63.77843205 131.87503964 62.95859773 130.48943474 62.13877869 129.1038208 C56.47960801 119.5408043 50.79840285 110.00069672 44.90409851 100.57992554 C39.86301391 92.51772834 35.01211685 84.35203773 30.21659851 76.14242554 C29.85842041 75.52928497 29.50024231 74.91614441 29.13121033 74.28442383 C27.67966209 71.79897481 26.22851965 69.31328934 24.77781677 66.8273468 C15.54338066 51.00840013 6.24099109 35.23239187 -3.48750305 19.71078491 C-3.98475891 18.91607788 -4.48201477 18.12137085 -4.99433899 17.30258179 C-5.42665833 16.61559204 -5.85897766 15.92860229 -6.30439758 15.22079468 C-9.20643978 10.36117986 -9.74708253 8.0102402 -8.47090149 2.26742554 C-5.66820622 -0.53526974 -3.92882697 0.01089696 0 0 Z " fill="#FCDD90" transform="translate(209.4709014892578,146.73257446289063)"/>
<path d="M0 0 C1.39335121 0.00103822 2.78670538 -0.00000113 4.18005371 -0.00302124 C7.09558035 -0.00284214 10.00999682 0.01793833 12.92529297 0.05419922 C16.65470673 0.09957689 20.38250008 0.10065969 24.11211395 0.08716393 C26.9879181 0.08046764 29.8633555 0.09377502 32.73908997 0.11342239 C34.11373473 0.1210982 35.48842038 0.12343452 36.86308289 0.1202507 C38.78707079 0.1195056 40.71100317 0.1477836 42.63476562 0.17724609 C43.72776978 0.18646088 44.82077393 0.19567566 45.94689941 0.20516968 C49.58725042 0.84654448 51.26935471 2.18669149 53.90625 4.7265625 C55.44149594 7.79705438 55.13328234 10.33171958 54.90625 13.7265625 C53.71875 16.55859375 53.71875 16.55859375 51.90625 19.5390625 C51.3968689 20.3894812 51.3968689 20.3894812 50.87719727 21.25708008 C49.57047663 23.4242634 48.23766536 25.57445875 46.90625 27.7265625 C45.62298574 29.82769021 44.34049612 31.92929113 43.05859375 34.03125 C39.67230558 39.57155096 36.27533646 45.10507859 32.83935547 50.61474609 C31.54247762 52.70239513 30.26037284 54.79928882 28.99267578 56.90478516 C28.38794434 57.89397949 27.78321289 58.88317383 27.16015625 59.90234375 C26.62849854 60.78446533 26.09684082 61.66658691 25.54907227 62.57543945 C23.78641362 64.88347711 22.60889767 65.74126733 19.90625 66.7265625 C16.23409221 67.1953486 14.53777809 67.1518493 11.43774414 65.06420898 C8.6942981 62.53084069 7.15474019 60.20480353 5.33984375 56.94921875 C4.69466797 55.80541748 4.04949219 54.66161621 3.38476562 53.4831543 C2.70396288 52.25204696 2.02363387 51.02067753 1.34375 49.7890625 C0.63954793 48.52791212 -0.06553844 47.26725514 -0.77148438 46.00708008 C-1.8421512 44.09573847 -2.91208498 42.18403643 -3.97793579 40.27000427 C-6.19582813 36.29435274 -8.47442281 32.36218114 -10.80859375 28.453125 C-11.36667725 27.51073975 -11.92476074 26.56835449 -12.49975586 25.59741211 C-13.53503932 23.85460303 -14.58086949 22.11800042 -15.63891602 20.38891602 C-18.38059004 15.72331083 -20.14563445 12.28182726 -19.09375 6.7265625 C-14.8907612 -1.2852302 -8.21019595 -0.12043091 0 0 Z " fill="#FDFDFD" transform="translate(272.09375,172.2734375)"/>
<path d="M0 0 C0.99 0.33 1.98 0.66 3 1 C1.66112543 5.34037464 -0.0253927 9.23675935 -2.125 13.26171875 C-2.42826706 13.84587051 -2.73153412 14.43002228 -3.04399109 15.03187561 C-4.02519273 16.91927034 -5.01255351 18.80336618 -6 20.6875 C-6.6798232 21.99296633 -7.35926404 23.29863184 -8.03833008 24.60449219 C-11.03057602 30.35222906 -14.04241079 36.08943187 -17.07421875 41.81640625 C-17.74614258 43.08641479 -17.74614258 43.08641479 -18.43164062 44.38208008 C-19.23562839 45.89799713 -20.04263934 47.41231703 -20.85351562 48.92456055 C-25.97043695 57.48774961 -25.97043695 57.48774961 -27.8125 66.875 C-27.544375 67.57625 -27.27625 68.2775 -27 69 C-26.67 69.99 -26.34 70.98 -26 72 C-29.16115776 70.63016497 -29.9927092 70.0109362 -32 67 C-31.625 63.8125 -31.625 63.8125 -31 61 C-30.34 61 -29.68 61 -29 61 C-28.87625 60.2575 -28.7525 59.515 -28.625 58.75 C-28.04513299 56.19858515 -27.26291261 54.2732427 -26 52 C-25.34 52 -24.68 52 -24 52 C-24 49.69 -24 47.38 -24 45 C-23.01 44.505 -23.01 44.505 -22 44 C-22.99 44 -23.98 44 -25 44 C-25 44.99 -25 45.98 -25 47 C-26.98 47.495 -26.98 47.495 -29 48 C-29.33 49.65 -29.66 51.3 -30 53 C-30.66 53 -31.32 53 -32 53 C-33.24719181 55.31621337 -34.10709292 57.3871821 -34.8125 59.9375 C-36.23719906 63.6117239 -38.13019421 65.33518034 -41 68 C-44.68819017 71.89308962 -45.58091395 74.65665281 -46 80 C-39.0972139 83.10564717 -31.59452109 82.09393177 -24.20898438 81.921875 C-18.37471823 81.83817961 -13.49728199 81.97510189 -8 84 C-8 84.33 -8 84.66 -8 85 C-13.03534236 85.0990984 -18.07011342 85.1715758 -23.10620117 85.21972656 C-24.81821586 85.23980505 -26.53016228 85.26707392 -28.24194336 85.30175781 C-30.70704008 85.35044401 -33.1712279 85.37300573 -35.63671875 85.390625 C-36.77919319 85.42159271 -36.77919319 85.42159271 -37.94474792 85.45318604 C-41.65812684 85.45474343 -43.80012124 85.12382087 -46.98535156 83.15063477 C-49 81 -49 81 -49.59765625 78.19921875 C-48.82131452 74.04350712 -46.8677434 71.17123002 -44.4375 67.8125 C-43.58044012 66.59095857 -42.72501395 65.36826953 -41.87109375 64.14453125 C-41.18490967 63.16806641 -41.18490967 63.16806641 -40.48486328 62.171875 C-38.18278896 58.80468441 -36.02855244 55.345997 -33.84985352 51.89819336 C-30.72709316 47.00571768 -27.48312718 42.19494048 -24.25 37.375 C-19.39303103 30.11177975 -14.55556129 22.83822678 -9.8125 15.5 C-9.18166504 14.52426025 -9.18166504 14.52426025 -8.53808594 13.52880859 C-5.65030506 9.0451488 -2.81690473 4.52847003 0 0 Z " fill="#F7C21B" transform="translate(251,346)"/>
<path d="M0 0 C1.32 0.66 2.64 1.32 4 2 C3.77686231 9.63130917 0.75351352 14.32166427 -3.4375 20.5625 C-4.0763916 21.53920654 -4.7152832 22.51591309 -5.37353516 23.5222168 C-7.23387719 26.35854878 -9.1130387 29.18132867 -11 32 C-11.86340856 33.29679025 -12.7267082 34.59365302 -13.58984375 35.890625 C-14.73091626 37.60151156 -15.87395094 39.31094182 -17.02246094 41.0168457 C-26.2918737 54.82542321 -35.07465582 68.96777053 -44 83 C-45.32 82.67 -46.64 82.34 -48 82 C-46.51840206 76.99375853 -44.36199471 72.67906629 -41.875 68.125 C-38.53010491 61.90825244 -35.29033701 55.6565138 -32.17700195 49.32080078 C-30.22429242 45.37281583 -28.19204584 41.4800963 -26.08984375 37.609375 C-25.58888184 36.67963867 -25.08791992 35.74990234 -24.57177734 34.79199219 C-23.58921877 32.97437008 -22.59654043 31.16217033 -21.59228516 29.35644531 C-18.77070752 24.11565405 -17.20323578 19.97906562 -17 14 C-17.33 13.01 -17.66 12.02 -18 11 C-16.68 11.33 -15.36 11.66 -14 12 C-13.97291433 13.60407328 -13.95356517 15.2082785 -13.9375 16.8125 C-13.92589844 17.70582031 -13.91429687 18.59914062 -13.90234375 19.51953125 C-14 22 -14 22 -15 25 C-15.99 25.495 -15.99 25.495 -17 26 C-18.13315997 27.97003888 -18.13315997 27.97003888 -19.125 30.3125 C-19.47820312 31.09238281 -19.83140625 31.87226563 -20.1953125 32.67578125 C-21.21811007 35.22004877 -21.21811007 35.22004877 -21 39 C-21.33 39.66 -21.66 40.32 -22 41 C-21.01 41 -20.02 41 -19 41 C-18.71125 40.21625 -18.4225 39.4325 -18.125 38.625 C-17 36 -17 36 -15 34 C-14.855625 33.195625 -14.71125 32.39125 -14.5625 31.5625 C-13.93866925 28.72060434 -13.28814582 27.73899082 -11 26 C-10.34 26 -9.68 26 -9 26 C-8.896875 25.236875 -8.79375 24.47375 -8.6875 23.6875 C-7.92350186 20.70096183 -7.20250065 20.03307752 -5 18 C-3.95107762 16.36368108 -2.95093297 14.69514137 -2 13 C-1.62875 12.38125 -1.2575 11.7625 -0.875 11.125 C0.36215362 8.12048407 0.70165533 5.22212247 1 2 C0.505 1.01 0.505 1.01 0 0 Z " fill="#F5C63C" transform="translate(369,149)"/>
<path d="M0 0 C3.85498047 0.78222656 3.85498047 0.78222656 5.16015625 2.7421875 C5.45792969 3.44601563 5.75570312 4.14984375 6.0625 4.875 C7.04932204 7.17052595 7.75385903 8.76187866 9.55859375 10.5078125 C11.29814023 12.30864381 11.45090254 13.59135399 12 16 C13.09673003 17.8767734 13.09673003 17.8767734 14.4375 19.625 C14.86933594 20.21539062 15.30117187 20.80578125 15.74609375 21.4140625 C17.05410314 23.13152168 17.05410314 23.13152168 19 25 C19.67441131 26.6635479 20.3400321 28.33066942 21 30 C22.42496314 32.54015168 23.87594316 34.84378027 25.6875 37.125 C27 39 27 39 27 42 C27.66 42 28.32 42 29 42 C30.32 44.97 31.64 47.94 33 51 C33.66 51 34.32 51 35 51 C36.66489182 54.92438786 37.87204037 58.89100419 39 63 C39.66 63 40.32 63 41 63 C41 63.99 41 64.98 41 66 C41.66 66 42.32 66 43 66 C43.24234375 66.51949219 43.4846875 67.03898437 43.734375 67.57421875 C45.32406116 70.88198879 46.80431891 73.7582763 49.125 76.625 C51.24105915 79.30534159 51.973166 81.77280743 53 85 C53.99 85.495 53.99 85.495 55 86 C55 87.32 55 88.64 55 90 C55.66 90 56.32 90 57 90 C57 90.99 57 91.98 57 93 C57.99 93.495 57.99 93.495 59 94 C67 105.06270627 67 105.06270627 67 110 C67.99 109.67 68.98 109.34 70 109 C70 110.32 70 111.64 70 113 C70.66 113.66 71.32 114.32 72 115 C72.71408334 116.98356483 73.38617742 118.98315437 74 121 C74.66 121 75.32 121 76 121 C76.4125 121.99 76.825 122.98 77.25 124 C79.5484222 129.34140369 81.94469055 134.5747096 85.25 139.375 C87 142 87 142 87 144 C83.11921589 142.7064053 82.85509991 141.43009328 80.953125 137.875 C80.36354004 136.78912598 79.77395508 135.70325195 79.16650391 134.58447266 C78.85497375 134.00143372 78.5434436 133.41839478 78.22247314 132.81768799 C76.5585028 129.70749525 74.86107523 126.61569114 73.1640625 123.5234375 C72.64282303 122.57203384 72.64282303 122.57203384 72.11105347 121.60140991 C68.76436479 115.51909099 65.22471924 109.56083017 61.625 103.625 C56.57836096 95.29625787 51.59980906 86.93427539 46.69470215 78.52178955 C39.32039413 65.87657223 31.78243646 53.33919325 24.1640625 40.83984375 C20.00241444 34.0114991 15.86887136 27.16674271 11.75 20.3125 C11.1420459 19.30348633 10.5340918 18.29447266 9.90771484 17.25488281 C6.49093858 11.56313906 3.17756191 5.82885144 0 0 Z " fill="#F2C51B" transform="translate(236,216)"/>
<path d="M0 0 C1.80786133 0.20214844 1.80786133 0.20214844 4 1 C5.5612793 3.04003906 5.5612793 3.04003906 7.07421875 5.765625 C7.65051025 6.7860791 8.22680176 7.8065332 8.82055664 8.85791016 C9.7446936 10.53699463 9.7446936 10.53699463 10.6875 12.25 C11.34538555 13.42192607 12.00484076 14.5929722 12.66577148 15.76318359 C13.70658713 17.60617317 14.74649906 19.44960616 15.78193665 21.29562378 C19.27079391 27.51215487 22.87133649 33.66080304 26.4894104 39.80276489 C28.27900344 42.84170895 30.06288047 45.88400647 31.84765625 48.92578125 C32.54832771 50.11931051 33.24901119 51.31283271 33.94970703 52.50634766 C49.02543678 78.19108914 49.02543678 78.19108914 55.45019531 89.76123047 C59.6856158 97.32225481 64.19778905 104.72137759 68.68530273 112.13452148 C72.24613452 118.02658898 75.71429515 123.94975128 79 130 C78.01 130.33 77.02 130.66 76 131 C71.13447904 122.51899311 71.13447904 122.51899311 69.375 118.125 C68.1331082 115.30251863 67.21889113 114.00756816 65 112 C65 111.34 65 110.68 65 110 C64.34 110 63.68 110 63 110 C62.65388672 109.05640625 62.65388672 109.05640625 62.30078125 108.09375 C60.07886741 102.26232397 57.46049919 97.17921379 54 92 C51 87.24137931 51 87.24137931 51 85 C50.01 85 49.02 85 48 85 C48 83.35 48 81.7 48 80 C47.34 80 46.68 80 46 80 C44.5393715 77.35261084 44 76.10551666 44 73 C43.34 73 42.68 73 42 73 C41.46890625 71.91460937 40.9378125 70.82921875 40.390625 69.7109375 C39.6773009 68.26551761 38.96374699 66.82021111 38.25 65.375 C37.90195312 64.66214844 37.55390625 63.94929688 37.1953125 63.21484375 C35.53859413 59.87072704 33.85456911 56.67715272 31.734375 53.6015625 C30 51 30 51 30 49 C29.34 48.67 28.68 48.34 28 48 C25.00750598 44.01000797 22.47414857 40.0575847 22 35 C21.34 35 20.68 35 20 35 C19.34 32.69 18.68 30.38 18 28 C17.34 28 16.68 28 16 28 C16 27.01 16 26.02 16 25 C15.34 25 14.68 25 14 25 C13.59007812 24.14535156 13.18015625 23.29070312 12.7578125 22.41015625 C12.21898437 21.30542969 11.68015625 20.20070312 11.125 19.0625 C10.59132813 17.96035156 10.05765625 16.85820312 9.5078125 15.72265625 C8.28340155 12.90595489 8.28340155 12.90595489 6 12 C4.87746038 9.71984139 3.95397806 7.38638333 3 5.03125 C2.17290051 2.83439745 2.17290051 2.83439745 0 2 C0 1.34 0 0.68 0 0 Z " fill="#F1C61D" transform="translate(255,224)"/>
<path d="M0 0 C0.99 0.33 1.98 0.66 3 1 C2.3503125 2.0209375 2.3503125 2.0209375 1.6875 3.0625 C-0.09371967 6.03134083 -0.09371967 6.03134083 -1.5 9.5 C-2.81135554 12.55982959 -4.24170341 15.18672545 -6 18 C-7.34599818 20.32623599 -8.67150951 22.66368914 -10 25 C-10.66 25 -11.32 25 -12 25 C-12.1546875 26.3303125 -12.1546875 26.3303125 -12.3125 27.6875 C-13 31 -13 31 -14.4375 33.3125 C-16.59090636 37.01635893 -17.22583509 40.81950946 -18 45 C-13.55852431 45.85916096 -9.37230176 46.11697565 -4.8515625 46.09765625 C-4.19417084 46.0962413 -3.53677917 46.09482635 -2.85946655 46.09336853 C-0.78126269 46.08781762 1.29682927 46.07527465 3.375 46.0625 C4.79296718 46.05747864 6.21093607 46.05291685 7.62890625 46.04882812 C11.08597322 46.03786437 14.54297567 46.02063421 18 46 C18 46.66 18 47.32 18 48 C8.70719885 48.74555425 -0.55254121 49.12637914 -9.875 49.1875 C-10.8438916 49.20039063 -11.8127832 49.21328125 -12.81103516 49.2265625 C-13.71644043 49.22785156 -14.6218457 49.22914063 -15.5546875 49.23046875 C-16.76874268 49.23663208 -16.76874268 49.23663208 -18.00732422 49.24291992 C-20 49 -20 49 -22 47 C-21.92608507 40.11667174 -18.59995179 34.5619186 -15.5 28.5625 C-14.96407227 27.50804687 -14.42814453 26.45359375 -13.87597656 25.3671875 C-9.48012762 16.77946119 -4.85454236 8.33608285 0 0 Z " fill="#202330" transform="translate(244,367)"/>
<path d="M0 0 C1.13110703 -0.00374634 1.13110703 -0.00374634 2.2850647 -0.00756836 C4.44920406 -0.01347655 6.61320272 -0.01197132 8.77734375 -0.0078125 C10.63540649 -0.00612061 10.63540649 -0.00612061 12.53100586 -0.00439453 C16.10323655 0.12649259 19.52836239 0.61167967 23.0625 1.125 C25.38408065 0.77840705 25.38408065 0.77840705 27.0625 0.125 C27.0625 0.455 27.0625 0.785 27.0625 1.125 C32.0125 1.455 36.9625 1.785 42.0625 2.125 C42.0625 2.455 42.0625 2.785 42.0625 3.125 C12.0325 3.125 -17.9975 3.125 -48.9375 3.125 C-48.9375 2.465 -48.9375 1.805 -48.9375 1.125 C-32.62313209 0.44380041 -16.32873387 0.0189696 0 0 Z " fill="#F4F3EB" transform="translate(323.9375,427.875)"/>
<path d="M0 0 C0.33 0.66 0.66 1.32 1 2 C3.02463255 2.65213292 3.02463255 2.65213292 5 3 C-0.60599988 12.93008169 -6.75282791 22.46543717 -13 32 C-14.32 31.67 -15.64 31.34 -17 31 C-15.45574476 25.72099705 -13.09964861 21.12558744 -10.5 16.3125 C-10.09652344 15.55388672 -9.69304687 14.79527344 -9.27734375 14.01367188 C-6.57253383 8.95665927 -3.62303808 4.46841363 0 0 Z " fill="#F6C829" transform="translate(338,200)"/>
<path d="M0 0 C43.56 0 87.12 0 132 0 C132 0.33 132 0.66 132 1 C130.71404938 1.01030746 129.42809875 1.02061493 128.10317993 1.03123474 C116.00708253 1.1288277 103.91103819 1.23154816 91.81502724 1.33933926 C85.59577868 1.39459463 79.37652544 1.4480188 73.15722656 1.49731445 C67.15960866 1.54491945 61.16204937 1.59726082 55.16450119 1.65294075 C52.87189562 1.67338185 50.57927397 1.69209197 48.28664017 1.70907402 C45.08507703 1.7330792 41.88362542 1.76313906 38.68212891 1.79467773 C37.72619339 1.8004332 36.77025787 1.80618866 35.78535461 1.81211853 C34.91594742 1.82190735 34.04654022 1.83169617 33.15078735 1.84178162 C32.0142166 1.85146044 32.0142166 1.85146044 30.85468483 1.8613348 C28.905611 1.88915979 28.905611 1.88915979 27 3 C25.32961389 2.68583584 23.66335638 2.3494774 22 2 C20.23447202 1.92252803 18.46641544 1.89200927 16.69921875 1.90234375 C15.72275391 1.90556641 14.74628906 1.90878906 13.74023438 1.91210938 C12.22913086 1.92467773 12.22913086 1.92467773 10.6875 1.9375 C9.66076172 1.94201172 8.63402344 1.94652344 7.57617188 1.95117188 C5.05072118 1.96291816 2.52539095 1.97934435 0 2 C0 1.34 0 0.68 0 0 Z " fill="#FEFCC8" transform="translate(235,147)"/>
<path d="M0 0 C0.99 0.33 1.98 0.66 3 1 C1.55676531 5.73789165 -0.37226733 9.98858151 -2.625 14.375 C-2.94984375 15.01566406 -3.2746875 15.65632813 -3.609375 16.31640625 C-4.40257407 17.87947501 -5.20077031 19.44000622 -6 21 C-7.65 21 -9.3 21 -11 21 C-11.33 20.34 -11.66 19.68 -12 19 C-11.01196289 17.02880859 -11.01196289 17.02880859 -9.47265625 14.6484375 C-8.92802734 13.79765625 -8.38339844 12.946875 -7.82226562 12.0703125 C-6.95118164 10.73613281 -6.95118164 10.73613281 -6.0625 9.375 C-5.48564453 8.4778125 -4.90878906 7.580625 -4.31445312 6.65625 C-2.88339217 4.43278339 -1.4450185 2.21441113 0 0 Z " fill="#F2BE1B" transform="translate(251,346)"/>
<path d="M0 0 C1.32 0.66 2.64 1.32 4 2 C3.80793839 9.76477664 0.56980446 14.59711079 -3.6875 20.9375 C-4.30044922 21.87529297 -4.91339844 22.81308594 -5.54492188 23.77929688 C-6.75986316 25.63327408 -7.98349746 27.48158755 -9.21630859 29.32373047 C-10.4024845 31.1034814 -11.57226375 32.89427347 -12.72509766 34.69580078 C-13.25538574 35.51935059 -13.78567383 36.34290039 -14.33203125 37.19140625 C-14.79971924 37.92689697 -15.26740723 38.6623877 -15.74926758 39.42016602 C-16.36838013 40.20218384 -16.36838013 40.20218384 -17 41 C-17.66 41 -18.32 41 -19 41 C-17.92598892 38.08482708 -17.22189824 36.22189824 -15 34 C-14.855625 33.195625 -14.71125 32.39125 -14.5625 31.5625 C-13.93866925 28.72060434 -13.28814582 27.73899082 -11 26 C-10.34 26 -9.68 26 -9 26 C-8.896875 25.236875 -8.79375 24.47375 -8.6875 23.6875 C-7.92350186 20.70096183 -7.20250065 20.03307752 -5 18 C-3.95107762 16.36368108 -2.95093297 14.69514137 -2 13 C-1.62875 12.38125 -1.2575 11.7625 -0.875 11.125 C0.36215362 8.12048407 0.70165533 5.22212247 1 2 C0.67 1.34 0.34 0.68 0 0 Z " fill="#F3D353" transform="translate(369,149)"/>
<path d="M0 0 C2.90427275 2.58145209 4.65452903 5.5480704 6.6171875 8.8828125 C6.95622101 9.45651581 7.29525452 10.03021912 7.64456177 10.62130737 C8.72563372 12.45340062 9.80025118 14.28919195 10.875 16.125 C11.58945306 17.33616805 12.30429324 18.54710783 13.01953125 19.7578125 C16.77116457 26.12148233 20.46127349 32.51482931 24 39 C22.515 39.495 22.515 39.495 21 40 C16.13447904 31.51899311 16.13447904 31.51899311 14.375 27.125 C13.1331082 24.30251863 12.21889113 23.00756816 10 21 C10 20.34 10 19.68 10 19 C9.34 19 8.68 19 8 19 C7.75765625 18.34773438 7.5153125 17.69546875 7.265625 17.0234375 C4.99095413 11.04549569 4.99095413 11.04549569 1.75 5.5625 C0 3 0 3 0 0 Z " fill="#EFC928" transform="translate(310,315)"/>
<path d="M0 0 C-1.56149465 1.84835389 -2.46100677 2.8965321 -4.87931824 3.36076355 C-5.58325211 3.35410172 -6.28718597 3.34743988 -7.01245117 3.34057617 C-7.81305466 3.34034958 -8.61365814 3.34012299 -9.43852234 3.33988953 C-10.29798965 3.32440567 -11.15745697 3.30892181 -12.04296875 3.29296875 C-12.9265657 3.28872391 -13.81016266 3.28447906 -14.72053528 3.28010559 C-17.54316661 3.26331043 -20.36508441 3.22565697 -23.1875 3.1875 C-25.10090115 3.17245423 -27.01431349 3.15876564 -28.92773438 3.14648438 C-33.61876459 3.11340419 -38.30926131 3.0616163 -43 3 C-43 2.34 -43 1.68 -43 1 C-38.96567641 0.8546329 -34.93125485 0.71238319 -30.89672852 0.57275391 C-29.53048901 0.52506275 -28.16427658 0.47658822 -26.7980957 0.42724609 C-17.86113428 0.10513421 -8.94279366 -0.06870997 0 0 Z " fill="#FAEFAF" transform="translate(318,428)"/>
<path d="M0 0 C0.33 0.99 0.66 1.98 1 3 C8.58296864 4.40546401 16.15753564 4.02130194 23.83984375 3.87304688 C29.64747387 3.81378534 34.52679422 3.99473064 40 6 C40 6.33 40 6.66 40 7 C34.94632167 7.07422923 29.8929616 7.12863915 24.83886719 7.16479492 C23.12006095 7.17986933 21.40129309 7.20033229 19.68261719 7.22631836 C17.21019003 7.26276165 14.738272 7.27973958 12.265625 7.29296875 C11.49881409 7.30845261 10.73200317 7.32393646 9.94195557 7.33988953 C6.7396089 7.34089672 4.36616826 7.18454056 1.48339844 5.73168945 C0 4 0 4 0 0 Z " fill="#FBCD29" transform="translate(203,424)"/>
<path d="M0 0 C1.32 0 2.64 0 4 0 C4 1.32 4 2.64 4 4 C4.66 4.66 5.32 5.32 6 6 C6.71408334 7.98356483 7.38617742 9.98315437 8 12 C8.66 12 9.32 12 10 12 C10.61875 13.485 10.61875 13.485 11.25 15 C13.5484222 20.34140369 15.94469055 25.5747096 19.25 30.375 C21 33 21 33 21 35 C16.94231447 33.64743816 16.5501067 31.89284052 14.53125 28.171875 C14.20966919 27.5858551 13.88808838 26.99983521 13.5567627 26.39605713 C12.52895565 24.51872846 11.51423969 22.63468723 10.5 20.75 C9.48291944 18.88125313 8.46323788 17.01394386 7.4432373 15.14678955 C6.51463918 13.44354541 5.59212018 11.73699115 4.66992188 10.03027344 C3.58899939 8.06881 2.46227197 6.13162123 1.28320312 4.22753906 C0 2 0 2 0 0 Z " fill="#F5CC29" transform="translate(302,325)"/>
<path d="M0 0 C3.69158808 3.29606078 5.80513838 6.61027676 8 11 C8 12.32 8 13.64 8 15 C8.66 15 9.32 15 10 15 C14 21.625 14 21.625 14 25 C14.66 25 15.32 25 16 25 C16.33 26.98 16.66 28.96 17 31 C12.47150169 26.92049566 9.84966616 21.26863538 6.8125 16.0625 C5.83120117 14.41604492 5.83120117 14.41604492 4.83007812 12.73632812 C4.21197266 11.67994141 3.59386719 10.62355469 2.95703125 9.53515625 C2.38960205 8.569729 1.82217285 7.60430176 1.23754883 6.60961914 C0 4 0 4 0 0 Z " fill="#23232F" transform="translate(259,223)"/>
<path d="M0 0 C1.32 0.33 2.64 0.66 4 1 C4.02708567 2.60407328 4.04643483 4.2082785 4.0625 5.8125 C4.07410156 6.70582031 4.08570313 7.59914062 4.09765625 8.51953125 C4 11 4 11 3 14 C2.01 14.495 2.01 14.495 1 15 C-0.0930369 17.04256899 -0.0930369 17.04256899 -1.0625 19.4375 C-1.40410156 20.24058594 -1.74570312 21.04367188 -2.09765625 21.87109375 C-2.39542969 22.57363281 -2.69320313 23.27617187 -3 24 C-3.33 24.66 -3.66 25.32 -4 26 C-4.66 26 -5.32 26 -6 26 C-6.33 26.99 -6.66 27.98 -7 29 C-7.33 28.34 -7.66 27.68 -8 27 C-7.28735352 25.1081543 -7.28735352 25.1081543 -6.12890625 22.82421875 C-5.51499023 21.58188477 -5.51499023 21.58188477 -4.88867188 20.31445312 C-4.01006475 18.57406052 -3.12987586 16.83446548 -2.24804688 15.09570312 C-1.83748047 14.26361328 -1.42691406 13.43152344 -1.00390625 12.57421875 C-0.62049072 11.81713623 -0.2370752 11.06005371 0.15795898 10.2800293 C1.54955564 6.51194547 1.25680848 3.77042544 0 0 Z " fill="#FADA5C" transform="translate(351,160)"/>
<path d="M0 0 C1.87109375 0.2578125 1.87109375 0.2578125 4 1 C5.16015625 2.7421875 5.16015625 2.7421875 6.0625 4.875 C7.04932204 7.17052595 7.75385903 8.76187866 9.55859375 10.5078125 C11.30406304 12.31477528 11.44945384 13.57941687 12 16 C12.80449466 17.44545269 13.66095268 18.86300412 14.5625 20.25 C15.01753906 20.95640625 15.47257813 21.6628125 15.94140625 22.390625 C16.29074219 22.92171875 16.64007813 23.4528125 17 24 C16.34 24.66 15.68 25.32 15 26 C12.86097315 22.45960715 10.72480315 18.91750891 8.59130859 15.3737793 C7.86456079 14.16757304 7.13702314 12.96184231 6.40869141 11.7565918 C5.3641519 10.02777233 4.32265213 8.29711741 3.28125 6.56640625 C2.65283203 5.52427979 2.02441406 4.48215332 1.37695312 3.40844727 C0 1 0 1 0 0 Z " fill="#F3D340" transform="translate(236,216)"/>
<path d="M0 0 C0 3 0 3 -1 5 C0.32 5.33 1.64 5.66 3 6 C1.02 8.97 1.02 8.97 -1 12 C-1.33 11.34 -1.66 10.68 -2 10 C-3.65 10 -5.3 10 -7 10 C-7.33 10.66 -7.66 11.32 -8 12 C-8.66 11.67 -9.32 11.34 -10 11 C-8.68 8.36 -7.36 5.72 -6 3 C-5.34 3 -4.68 3 -4 3 C-3.34 2.34 -2.68 1.68 -2 1 C-1.34 0.67 -0.68 0.34 0 0 Z " fill="#FBCD47" transform="translate(348,185)"/>
<path d="M0 0 C3.89238981 3.42353377 6.06848742 7.31876599 8.5 11.8125 C9.26021584 13.19412094 10.02063104 14.5756322 10.78125 15.95703125 C11.14605469 16.62943848 11.51085937 17.3018457 11.88671875 17.99462891 C12.63583863 19.34403038 13.40997638 20.67981116 14.20703125 22.00146484 C15.19256272 23.63597386 16.10357451 25.31497378 17 27 C16.67 27.66 16.34 28.32 16 29 C13.30370001 26.61813733 11.95996797 24.17811364 10.4375 20.9375 C9.11349276 18.12862483 8.20354957 16.20354957 6 14 C6 13.01 6 12.02 6 11 C5.360625 10.773125 4.72125 10.54625 4.0625 10.3125 C2 9 2 9 1.3125 6.625 C1.209375 5.75875 1.10625 4.8925 1 4 C0.67516582 2.66457061 0.3449145 1.33038449 0 0 Z " fill="#F2ECD1" transform="translate(344,373)"/>
<path d="M0 0 C4.1145246 3.60382249 6.58987169 7.95539865 9.3125 12.625 C9.77978516 13.40101563 10.24707031 14.17703125 10.72851562 14.9765625 C11.16486328 15.7190625 11.60121094 16.4615625 12.05078125 17.2265625 C12.44950439 17.90283691 12.84822754 18.57911133 13.2590332 19.27587891 C13.50355225 19.84483887 13.74807129 20.41379883 14 21 C13.67 21.66 13.34 22.32 13 23 C11.62437146 21.71034824 10.29233607 20.37310707 9 19 C9 18.34 9 17.68 9 17 C8.01 17 7.02 17 6 17 C5.9175 16.29875 5.835 15.5975 5.75 14.875 C5.12918959 11.8362278 5.12918959 11.8362278 3 9.0625 C0.9240705 5.88373295 0.35576699 3.73555342 0 0 Z " fill="#23232E" transform="translate(238,221)"/>
<path d="M0 0 C10.23 0 20.46 0 31 0 C27 3 27 3 24.58129883 2.69360352 C23.72947021 2.46471436 22.8776416 2.2358252 22 2 C20.23447202 1.92252803 18.46641544 1.89200927 16.69921875 1.90234375 C15.72275391 1.90556641 14.74628906 1.90878906 13.74023438 1.91210938 C12.22913086 1.92467773 12.22913086 1.92467773 10.6875 1.9375 C9.66076172 1.94201172 8.63402344 1.94652344 7.57617188 1.95117188 C5.05072118 1.96291816 2.52539095 1.97934435 0 2 C0 1.34 0 0.68 0 0 Z " fill="#FAF9F3" transform="translate(235,147)"/>
<path d="M0 0 C3.59248836 1.43295884 4.92324381 3.00579252 6.796875 6.3515625 C7.28027344 7.20234375 7.76367188 8.053125 8.26171875 8.9296875 C8.75285156 9.81914062 9.24398438 10.70859375 9.75 11.625 C10.25660156 12.5221875 10.76320313 13.419375 11.28515625 14.34375 C12.53319926 16.55726025 13.77094617 18.77590724 15 21 C14.34 21.99 13.68 22.98 13 24 C10 19.25 10 19.25 10 17 C9.34 16.67 8.68 16.34 8 16 C8 14.68 8 13.36 8 12 C7.01 11.67 6.02 11.34 5 11 C5 10.01 5 9.02 5 8 C4.34 8 3.68 8 3 8 C0 2.25 0 2.25 0 0 Z " fill="#26262F" transform="translate(299,325)"/>
<path d="M0 0 C0.99 0.33 1.98 0.66 3 1 C3 1.66 3 2.32 3 3 C3.66 3 4.32 3 5 3 C9 9.75 9 9.75 9 12 C9.66 12 10.32 12 11 12 C11.53012738 13.28788008 12.0488329 14.58046678 12.5625 15.875 C12.85253906 16.59429687 13.14257812 17.31359375 13.44140625 18.0546875 C14 20 14 20 13 22 C0 3.14285714 0 3.14285714 0 0 Z " fill="#F8F5E7" transform="translate(215,180)"/>
<path d="M0 0 C3.72357865 1.24119288 4.04175165 2.28243263 5.953125 5.62109375 C6.489375 6.55630859 7.025625 7.49152344 7.578125 8.45507812 C8.12984375 9.43927734 8.6815625 10.42347656 9.25 11.4375 C9.8171875 12.41783203 10.384375 13.39816406 10.96875 14.40820312 C14.05431771 19.84913744 14.05431771 19.84913744 15 22 C14.67 22.66 14.34 23.32 14 24 C13.38125 23.01 12.7625 22.02 12.125 21 C11.42375 20.01 10.7225 19.02 10 18 C9.34 18 8.68 18 8 18 C7.87625 16.329375 7.87625 16.329375 7.75 14.625 C7.42126213 10.94246056 7.42126213 10.94246056 4.9375 9.5625 C4.298125 9.376875 3.65875 9.19125 3 9 C3 7.35 3 5.7 3 4 C2.34 4 1.68 4 1 4 C0.67 2.68 0.34 1.36 0 0 Z " fill="#F2EEDE" transform="translate(227,175)"/>
<path d="M0 0 C0.66 0.33 1.32 0.66 2 1 C0.58833777 4.86275735 -1.22104454 8.16446954 -3.4375 11.625 C-4.03433594 12.56601563 -4.63117188 13.50703125 -5.24609375 14.4765625 C-6.70939499 16.58189124 -8.11413001 18.28137842 -10 20 C-11 17 -11 17 -10.21142578 15.31420898 C-9.7936084 14.71423096 -9.37579102 14.11425293 -8.9453125 13.49609375 C-8.49542969 12.83802734 -8.04554688 12.17996094 -7.58203125 11.50195312 C-7.10121094 10.82068359 -6.62039063 10.13941406 -6.125 9.4375 C-5.18939071 8.08252361 -4.25446325 6.7270761 -3.3203125 5.37109375 C-2.90023926 4.77224365 -2.48016602 4.17339355 -2.04736328 3.55639648 C-0.93176237 1.97046759 -0.93176237 1.97046759 0 0 Z " fill="#26272E" transform="translate(367,165)"/>
<path d="M0 0 C0.66 0.33 1.32 0.66 2 1 C-0.56951795 8.06617435 -4.58353931 13.98870628 -9 20 C-9.66 19.01 -10.32 18.02 -11 17 C-10.28972656 15.94039062 -9.57945312 14.88078125 -8.84765625 13.7890625 C-7.91921005 12.40108232 -6.99082796 11.01305926 -6.0625 9.625 C-5.59392578 8.92632812 -5.12535156 8.22765625 -4.64257812 7.5078125 C-4.19462891 6.8375 -3.74667969 6.1671875 -3.28515625 5.4765625 C-2.87144775 4.85861816 -2.45773926 4.24067383 -2.03149414 3.60400391 C-0.94056583 1.97082732 -0.94056583 1.97082732 0 0 Z " fill="#28282F" transform="translate(350,191)"/>
<path d="M0 0 C3.27905867 3.02458627 5.53769852 6.16875541 7.8125 10 C8.43769531 11.03125 9.06289063 12.0625 9.70703125 13.125 C11 16 11 16 10.69921875 18.375 C10.46847656 18.91125 10.23773438 19.4475 10 20 C6.7089159 16.39042389 5.45336079 13.87362847 5 9 C4.34 9 3.68 9 3 9 C2.9175 8.21625 2.835 7.4325 2.75 6.625 C2.27193661 3.85250896 2.27193661 3.85250896 -0.0625 2.6875 C-0.701875 2.460625 -1.34125 2.23375 -2 2 C-1.34 1.34 -0.68 0.68 0 0 Z " fill="#23242F" transform="translate(255,249)"/>
<path d="M0 0 C1.32 0.66 2.64 1.32 4 2 C4 10.26879674 -0.23883541 15.49271354 -5 22 C-5.33 21.01 -5.66 20.02 -6 19 C-4.73779907 16.95436401 -3.39712274 14.95597184 -2 13 C0.15802594 9.47901031 0.62081232 6.09522694 1 2 C0.67 1.34 0.34 0.68 0 0 Z " fill="#EFD56C" transform="translate(369,149)"/>
<path d="M0 0 C0.61875 0.804375 1.2375 1.60875 1.875 2.4375 C3.74164041 5.03874519 3.74164041 5.03874519 6 6 C6.103125 6.9075 6.20625 7.815 6.3125 8.75 C7.17397907 12.8224465 8.91568877 14.31111328 12 17 C11.67 17.66 11.34 18.32 11 19 C6.6985797 17.56619323 5.44443029 14.34930125 3.25 10.625 C2.82589844 9.93921875 2.40179688 9.2534375 1.96484375 8.546875 C0.88980608 6.74697479 -0.0640699 4.87600149 -1 3 C-0.67 2.01 -0.34 1.02 0 0 Z " fill="#232630" transform="translate(308,307)"/>
<path d="M0 0 C2.80849619 1.4042481 2.88266612 3.10807701 4 6 C5.41835576 8.52837331 6.81723554 10.78339027 8.6875 13 C10.31861958 15.48551555 10.24293723 17.08475321 10 20 C7.20708823 16.58781732 4.61827226 13.11692159 2.1875 9.4375 C1.56230469 8.50808594 0.93710938 7.57867187 0.29296875 6.62109375 C-1 4 -1 4 -0.69921875 1.66015625 C-0.46847656 1.11230469 -0.23773438 0.56445312 0 0 Z " fill="#F4CF23" transform="translate(253,240)"/>
<path d="M0 0 C9.24 0 18.48 0 28 0 C27.67 2.64 27.34 5.28 27 8 C26.01 8 25.02 8 24 8 C24.66 6.02 25.32 4.04 26 2 C13.13 1.505 13.13 1.505 0 1 C0 0.67 0 0.34 0 0 Z " fill="#2E2D2C" transform="translate(325,163)"/>
<path d="M0 0 C1.15242188 0.00902344 2.30484375 0.01804687 3.4921875 0.02734375 C4.36101562 0.03894531 5.22984375 0.05054688 6.125 0.0625 C5.13671875 1.55078125 5.13671875 1.55078125 3.125 3.0625 C0.31372957 3.27964241 -2.2633345 3.34534276 -5.0625 3.25 C-5.81208984 3.23646484 -6.56167969 3.22292969 -7.33398438 3.20898438 C-9.18129767 3.17368539 -11.02824066 3.11987917 -12.875 3.0625 C-12.875 2.4025 -12.875 1.7425 -12.875 1.0625 C-8.52167264 0.22226812 -4.43057481 -0.04520995 0 0 Z " fill="#F9F1CF" transform="translate(311.875,427.9375)"/>
<path d="M0 0 C1.485 0.99 1.485 0.99 3 2 C3 2.99 3 3.98 3 5 C3.66 5 4.32 5 5 5 C5.86627399 6.59766103 6.71766465 8.20339944 7.5625 9.8125 C8.27599609 11.15248047 8.27599609 11.15248047 9.00390625 12.51953125 C10 15 10 15 9 18 C6.76117513 15.09557855 4.73894972 12.12037287 2.8125 9 C2.28269531 8.154375 1.75289063 7.30875 1.20703125 6.4375 C0 4 0 4 0 0 Z " fill="#24252E" transform="translate(321,329)"/>
<path d="M0 0 C1.73046875 0.06640625 1.73046875 0.06640625 4 1 C5.62412112 3.30642694 6.97776062 5.47543048 8.3125 7.9375 C8.68439453 8.58396484 9.05628906 9.23042969 9.43945312 9.89648438 C10.36640453 11.55878271 11.19170193 13.27688396 12 15 C11.67 15.66 11.34 16.32 11 17 C9 16 9 16 8 13 C7.34 12.67 6.68 12.34 6 12 C4.87746038 9.71984139 3.95397806 7.38638333 3 5.03125 C2.17290051 2.83439745 2.17290051 2.83439745 0 2 C0 1.34 0 0.68 0 0 Z " fill="#F5D439" transform="translate(255,224)"/>
<path d="M0 0 C8.25 0 16.5 0 25 0 C25 0.66 25 1.32 25 2 C22.14619655 2.19629336 19.29232606 2.38226546 16.4375 2.5625 C15.23770508 2.64661133 15.23770508 2.64661133 14.01367188 2.73242188 C9.15845373 3.02968013 4.78889489 2.86778632 0 2 C0 1.34 0 0.68 0 0 Z " fill="#25272E" transform="translate(237,413)"/>
<path d="M0 0 C0.99 0 1.98 0 3 0 C2.38461538 6.52307692 2.38461538 6.52307692 0.4375 8.9375 C-0.036875 9.288125 -0.51125 9.63875 -1 10 C-2.32 9.01 -3.64 8.02 -5 7 C-4.54625 6.5875 -4.0925 6.175 -3.625 5.75 C-1.94049626 3.93591905 -1.00734029 2.24714373 0 0 Z " fill="#F5B51C" transform="translate(236,373)"/>
<path d="M0 0 C0.99 0.33 1.98 0.66 3 1 C0.69 5.62 -1.62 10.24 -4 15 C-4.66 14.67 -5.32 14.34 -6 14 C-5.67 12.35 -5.34 10.7 -5 9 C-4.34 9 -3.68 9 -3 9 C-2.87625 8.071875 -2.7525 7.14375 -2.625 6.1875 C-2 3 -2 3 0 0 Z " fill="#2C2A2D" transform="translate(348,172)"/>
<path d="M0 0 C3.23387892 2.95267206 5.22245249 5.87922748 7.25 9.75 C7.77078125 10.73484375 8.2915625 11.7196875 8.828125 12.734375 C9.21484375 13.48203125 9.6015625 14.2296875 10 15 C9.01 15.33 8.02 15.66 7 16 C3.88535757 10.75741484 1.39331247 5.95324421 0 0 Z " fill="#EFD457" transform="translate(324,339)"/>
<path d="M0 0 C3.31232312 3.12810644 5.421226 6.67998562 7.75 10.5625 C8.17410156 11.24763672 8.59820312 11.93277344 9.03515625 12.63867188 C10.08912404 14.38784643 11.052497 16.19094007 12 18 C11.67 18.66 11.34 19.32 11 20 C8.02753198 17.45217026 6.58464712 14.54659117 5 11 C5 10.34 5 9.68 5 9 C4.34 9 3.68 9 3 9 C3 8.01 3 7.02 3 6 C2.34 6 1.68 6 1 6 C0.67 4.02 0.34 2.04 0 0 Z " fill="#F1DD65" transform="translate(245,204)"/>
<path d="M0 0 C0.66 0.99 1.32 1.98 2 3 C-0.31 7.29 -2.62 11.58 -5 16 C-5.99 15.01 -6.98 14.02 -8 13 C-7.34 13 -6.68 13 -6 13 C-5.731875 11.741875 -5.46375 10.48375 -5.1875 9.1875 C-4.38779369 5.94868944 -3.69264609 4.10728825 -1 2 C-0.67 1.34 -0.34 0.68 0 0 Z " fill="#26252E" transform="translate(331,205)"/>
<path d="M0 0 C0.66 0 1.32 0 2 0 C2 0.66 2 1.32 2 2 C2.66 2 3.32 2 4 2 C6.25861997 6.93387858 8.40109514 11.80355921 10 17 C6.81321628 14.07647233 4.78276705 11.18387159 2.75 7.375 C1.96882813 5.93253906 1.96882813 5.93253906 1.171875 4.4609375 C0 2 0 2 0 0 Z " fill="#F6F3E4" transform="translate(341,392)"/>
<path d="M0 0 C0 0.33 0 0.66 0 1 C-5.28 1 -10.56 1 -16 1 C-16.33 0.34 -16.66 -0.32 -17 -1 C-10.72532201 -2.0748291 -6.09339169 -1.88341198 0 0 Z " fill="#FAD849" transform="translate(243,430)"/>
<path d="M0 0 C0.66 0 1.32 0 2 0 C2.24234375 0.50789063 2.4846875 1.01578125 2.734375 1.5390625 C4.40064801 4.96133091 6.07904101 8.24261631 8.25 11.375 C10 14 10 14 10 16 C5.96374924 14.65458308 5.14552047 12.14052535 3.3125 8.5625 C2.99216797 7.96373047 2.67183594 7.36496094 2.34179688 6.74804688 C0 2.28914579 0 2.28914579 0 0 Z " fill="#F4DA53" transform="translate(313,344)"/>
<path d="M0 0 C0.66 0.33 1.32 0.66 2 1 C1.67 2.98 1.34 4.96 1 7 C0.01 6.67 -0.98 6.34 -2 6 C-2.99 7.98 -3.98 9.96 -5 12 C-6 9 -6 9 -5.22265625 7.17578125 C-4.1484375 5.45052083 -3.07421875 3.72526042 -2 2 C-1.34 2 -0.68 2 0 2 C0 1.34 0 0.68 0 0 Z " fill="#FBD139" transform="translate(340,195)"/>
<path d="M0 0 C3 2 3 2 3.6875 4.625 C3.8421875 5.800625 3.8421875 5.800625 4 7 C4.66 7 5.32 7 6 7 C6.33 8.98 6.66 10.96 7 13 C4 12 4 12 2.83203125 9.78515625 C2.32736328 8.43744141 2.32736328 8.43744141 1.8125 7.0625 C1.46832031 6.16660156 1.12414062 5.27070313 0.76953125 4.34765625 C0 2 0 2 0 0 Z " fill="#27282E" transform="translate(299,291)"/>
<path d="M0 0 C0.99 0.33 1.98 0.66 3 1 C2.67 1.33 2.34 1.66 2 2 C1.95653201 3.99952758 1.960008 6.00039988 2 8 C2 8.99 2 9.98 2 11 C0.68 9.68 -0.64 8.36 -2 7 C-1.34 4.69 -0.68 2.38 0 0 Z " fill="#24262F" transform="translate(201,419)"/>
<path d="M0 0 C3.33557632 2.9905167 5.15083921 5.93184627 7 10 C5.68 9.67 4.36 9.34 3 9 C2.67 7.68 2.34 6.36 2 5 C1.34 5 0.68 5 0 5 C0 3.35 0 1.7 0 0 Z " fill="#F4CF3B" transform="translate(318,329)"/>
<path d="M0 0 C1.32 0 2.64 0 4 0 C4.53012738 1.28788008 5.0488329 2.58046678 5.5625 3.875 C5.99755859 4.95394531 5.99755859 4.95394531 6.44140625 6.0546875 C7 8 7 8 6 10 C4.99723227 8.52270825 3.99785546 7.04311423 3 5.5625 C2.443125 4.73878906 1.88625 3.91507813 1.3125 3.06640625 C0 1 0 1 0 0 Z " fill="#F2E8BA" transform="translate(222,192)"/>
<path d="M0 0 C2.82572058 1.03293147 3.82978305 1.67952982 5.265625 4.3828125 C5.59046875 5.28773438 5.9153125 6.19265625 6.25 7.125 C6.58515625 8.03507812 6.9203125 8.94515625 7.265625 9.8828125 C7.62914062 10.93082031 7.62914062 10.93082031 8 12 C7.01 12.495 7.01 12.495 6 13 C4.99491199 11.21118264 3.99607264 9.41885304 3 7.625 C2.1646875 6.12839844 2.1646875 6.12839844 1.3125 4.6015625 C0 2 0 2 0 0 Z " fill="#F0E4AF" transform="translate(334,380)"/>
<path d="M0 0 C4 1 4 1 5.265625 2.84765625 C5.59046875 3.57855469 5.9153125 4.30945313 6.25 5.0625 C6.75273437 6.16271484 6.75273437 6.16271484 7.265625 7.28515625 C7.50796875 7.85105469 7.7503125 8.41695312 8 9 C7.34 9.66 6.68 10.32 6 11 C4.02 7.37 2.04 3.74 0 0 Z " fill="#F5DC5C" transform="translate(236,216)"/>
<path d="M0 0 C0.66 0 1.32 0 2 0 C1.69381595 3.67420866 1.24228216 4.78135513 -1.5625 7.3125 C-2.366875 7.869375 -3.17125 8.42625 -4 9 C-4 4.9666466 -2.39120082 3.16482462 0 0 Z " fill="#24252F" transform="translate(337,212)"/>
<path d="M0 0 C3.65392651 1.2179755 3.95831699 2.14396506 5.75 5.4375 C6.19859375 6.24058594 6.6471875 7.04367188 7.109375 7.87109375 C7.40328125 8.57363281 7.6971875 9.27617187 8 10 C7.67 10.66 7.34 11.32 7 12 C6.38125 11.01 5.7625 10.02 5.125 9 C4.42375 8.01 3.7225 7.02 3 6 C2.34 6 1.68 6 1 6 C0.67 4.02 0.34 2.04 0 0 Z " fill="#F4ECB9" transform="translate(234,187)"/>
<path d="M0 0 C0.99 0 1.98 0 3 0 C2.42647107 3.87132028 0.51295648 6.08172796 -2 9 C-3 6 -3 6 -1.5625 2.8125 C-1.046875 1.884375 -0.53125 0.95625 0 0 Z " fill="#28282E" transform="translate(253,349)"/>
<path d="M0 0 C0.33 0.99 0.66 1.98 1 3 C-2.96 3 -6.92 3 -11 3 C-6.577168 -0.317124 -5.28089024 -0.30466674 0 0 Z " fill="#FAD03B" transform="translate(226,428)"/>
<path d="M0 0 C0.99 0 1.98 0 3 0 C1.87548273 2.9719385 0.77706209 5.33440687 -1 8 C-1.99 7.67 -2.98 7.34 -4 7 C-3.67 6.01 -3.34 5.02 -3 4 C-2.34 4 -1.68 4 -1 4 C-0.67 2.68 -0.34 1.36 0 0 Z " fill="#222630" transform="translate(223,384)"/>
<path d="M0 0 C2.79705825 1.39852912 2.90914993 3.13651858 4 6 C4.99 7.485 4.99 7.485 6 9 C4.68 9 3.36 9 2 9 C0.1875 6.75 0.1875 6.75 -1 4 C-0.6875 1.6875 -0.6875 1.6875 0 0 Z " fill="#F5C92E" transform="translate(253,240)"/>
<path d="M0 0 C0.66 0.66 1.32 1.32 2 2 C2.99 2 3.98 2 5 2 C5 2.99 5 3.98 5 5 C4.34 5.66 3.68 6.32 3 7 C2.67 6.01 2.34 5.02 2 4 C0.68 4.33 -0.64 4.66 -2 5 C-1.34 3.35 -0.68 1.7 0 0 Z " fill="#EBBE2A" transform="translate(330,211)"/>
<path d="M0 0 C0.99 0 1.98 0 3 0 C2.67 2.31 2.34 4.62 2 7 C2.99 7.66 3.98 8.32 5 9 C3.35 9 1.7 9 0 9 C-1.125 2.25 -1.125 2.25 0 0 Z " fill="#32302F" transform="translate(224,405)"/>
<path d="M0 0 C1.875 0.25 1.875 0.25 4 1 C5.3125 2.8125 5.3125 2.8125 6 5 C5.625 7.25 5.625 7.25 5 9 C3.19933758 6.0534615 1.49836105 3.11198065 0 0 Z " fill="#282830" transform="translate(276,287)"/>
<path d="M0 0 C0.33 0.66 0.66 1.32 1 2 C-0.98 4.97 -2.96 7.94 -5 11 C-5.33 10.01 -5.66 9.02 -6 8 C-4.22557591 5.00183515 -2.46459429 2.46459429 0 0 Z " fill="#FAE065" transform="translate(369,160)"/>
<path d="M0 0 C0.99 0 1.98 0 3 0 C3.28875 0.78375 3.5775 1.5675 3.875 2.375 C4.84912254 5.09671632 4.84912254 5.09671632 7 7 C6.01 8.485 6.01 8.485 5 10 C3.35 6.7 1.7 3.4 0 0 Z " fill="#EDD772" transform="translate(322,361)"/>
<path d="M0 0 C0.99 0 1.98 0 3 0 C5.125 4.625 5.125 4.625 4 8 C1.84622436 5.37801226 0.59927826 3.35595828 0 0 Z " fill="#F5CD3B" transform="translate(309,337)"/>
<path d="M0 0 C1.32 0.33 2.64 0.66 4 1 C3.01 1.33 2.02 1.66 1 2 C1 3.32 1 4.64 1 6 C-0.5 7.75 -0.5 7.75 -2 9 C-2.66 8.67 -3.32 8.34 -4 8 C-2.68 5.36 -1.36 2.72 0 0 Z " fill="#EACA46" transform="translate(342,188)"/>
<path d="M0 0 C3.33557632 2.9905167 5.15083921 5.93184627 7 10 C6.34 10 5.68 10 5 10 C1.98295115 6.8000997 0.50109958 4.38462134 0 0 Z " fill="#F0DD75" transform="translate(333,354)"/>
<path d="M0 0 C2.34058637 2.12780579 3.70700306 4.11562221 5 7 C4.34 7.66 3.68 8.32 3 9 C0.90250005 6.64031256 0.03094296 5.45383006 -0.1875 2.25 C-0.125625 1.5075 -0.06375 0.765 0 0 Z " fill="#2B2A2D" transform="translate(230,207)"/>
<path d="M0 0 C1.32 0.33 2.64 0.66 4 1 C4.125 3.875 4.125 3.875 4 7 C3.34 7.66 2.68 8.32 2 9 C1.34 6.03 0.68 3.06 0 0 Z " fill="#FADD6B" transform="translate(351,160)"/>
<path d="M0 0 C3 1 3 1 4.6875 4.0625 C5.120625 5.031875 5.55375 6.00125 6 7 C5.34 7.66 4.68 8.32 4 9 C3.3309224 7.68872739 2.66480194 6.3759455 2 5.0625 C1.62875 4.33160156 1.2575 3.60070312 0.875 2.84765625 C0 1 0 1 0 0 Z " fill="#29282E" transform="translate(293,314)"/>
<path d="M0 0 C2.34058637 2.12780579 3.70700306 4.11562221 5 7 C4.34 7.66 3.68 8.32 3 9 C0.70620251 5.55930376 0 4.27709699 0 0 Z " fill="#27272E" transform="translate(269,272)"/>
<path d="M0 0 C0.66 0 1.32 0 2 0 C2 0.66 2 1.32 2 2 C2.99 2.33 3.98 2.66 5 3 C5.33 4.98 5.66 6.96 6 9 C2.91910327 6.22719294 1.31224548 3.93673644 0 0 Z " fill="#F8E780" transform="translate(231,207)"/>
<path d="M0 0 C4.875 2.625 4.875 2.625 6 6 C5.34 6.66 4.68 7.32 4 8 C0 2.25 0 2.25 0 0 Z " fill="#2C2C2C" transform="translate(340,396)"/>
<path d="M0 0 C0.66 0 1.32 0 2 0 C1.67 1.65 1.34 3.3 1 5 C-0.32 5.33 -1.64 5.66 -3 6 C-2.01 4.02 -1.02 2.04 0 0 Z " fill="#FCBB24" transform="translate(330,215)"/>
</svg>
